<svg width="1028" height="1248" viewBox="0 0 1028 1248" fill="none" xmlns="http://www.w3.org/2000/svg">
<path d="M716.26 659.879C727.462 640.755 727.594 620.01 716.555 613.544C705.515 607.077 687.485 617.338 676.283 636.462C665.081 655.586 664.949 676.331 675.988 682.798C687.028 689.264 705.058 679.003 716.26 659.879Z" fill="black"/>
<path d="M854.213 580.22C865.415 561.096 865.547 540.351 854.508 533.885C843.468 527.418 825.438 537.679 814.236 556.803C803.034 575.927 802.902 596.672 813.942 603.139C824.981 609.605 843.011 599.344 854.213 580.22Z" fill="black"/>
<path d="M563.441 1097.95L966.994 864.974C979.469 857.772 989.827 847.413 997.028 834.938C1004.23 822.463 1008.02 808.311 1008.02 793.907V332.931C1008.02 318.433 1004.18 304.192 996.893 291.66C989.603 279.127 979.121 268.751 966.516 261.587L560.611 31.0554C547.758 23.7585 533.221 19.9476 518.441 20.0005C503.661 20.0535 489.152 23.9684 476.351 31.3572L77.8786 261.499C65.4076 268.702 55.0516 279.06 47.8508 291.532C40.65 304.005 36.8579 318.152 36.8555 332.554V793.907C36.857 808.311 40.6485 822.46 47.8493 834.935C55.0501 847.409 65.4066 857.769 77.8786 864.974L481.382 1097.95C493.858 1105.14 508.008 1108.93 522.411 1108.93C536.815 1108.93 550.965 1105.14 563.441 1097.95Z" stroke="black" stroke-width="39.15" stroke-linecap="round" stroke-linejoin="round"/>
<path d="M520.855 860.309V569.789" stroke="black" stroke-width="39.15" stroke-linecap="round" stroke-linejoin="round"/>
<path d="M48.4609 297.743L520.743 564.796L993.276 297.593" stroke="black" stroke-width="39.15" stroke-linecap="round" stroke-linejoin="round"/>
<path d="M723.081 292.386V240.636L662.716 237.416C647.81 233.287 632.481 230.874 617.027 230.223C616.612 225.595 611.078 185.879 542.011 171.945C470.138 157.445 420.023 199.009 420.023 199.009C410.21 205.784 401.378 213.879 393.776 223.067L373.227 221.973V276.905C372.045 319.45 400.568 354.965 400.568 354.965C400.568 354.965 557.768 397.22 670.701 344.023C670.701 344.023 721.697 323.587 723.005 292.386H723.081Z" fill="black" stroke="black" stroke-width="39.15" stroke-linecap="round" stroke-linejoin="round"/>
<path d="M400.556 301.479C400.556 301.479 557.757 343.734 670.69 290.537C670.69 290.537 742.764 261.612 717.75 220.111C693.717 180.208 624.926 176.963 616.915 176.711C616.5 172.083 610.967 132.368 541.899 118.434C470.027 103.934 419.911 145.498 419.911 145.498C327.603 210.591 400.569 301.441 400.569 301.441L400.556 301.479Z" fill="#FC79DF" stroke="black" stroke-width="39.15" stroke-miterlimit="10"/>
<path d="M637.699 1184.76L644.339 1196.22C651.633 1208.79 651.432 1219.8 636.794 1228.3L629.977 1232.25C623.689 1235.87 618.659 1236.18 614.207 1234.04L615.741 1236.7C616.003 1237.06 616.181 1237.47 616.262 1237.91C616.344 1238.34 616.326 1238.79 616.212 1239.22C616.097 1239.65 615.888 1240.05 615.6 1240.39C615.312 1240.72 614.952 1240.99 614.546 1241.17L604.322 1247.1C603.959 1247.36 603.542 1247.53 603.103 1247.61C602.663 1247.69 602.212 1247.66 601.782 1247.54C601.352 1247.42 600.955 1247.21 600.62 1246.91C600.284 1246.62 600.02 1246.25 599.845 1245.84L561.513 1179.67C561.252 1179.31 561.074 1178.89 560.992 1178.45C560.911 1178.02 560.928 1177.57 561.042 1177.14C561.157 1176.71 561.365 1176.31 561.654 1175.97C561.942 1175.63 562.302 1175.36 562.708 1175.18L572.932 1169.25C573.295 1168.99 573.712 1168.82 574.152 1168.74C574.591 1168.66 575.043 1168.69 575.473 1168.81C575.902 1168.93 576.299 1169.14 576.635 1169.44C576.97 1169.73 577.235 1170.1 577.409 1170.51L589.746 1191.81C590.086 1186.93 592.903 1182.65 599.153 1179.02L605.97 1175.08C620.608 1166.59 630.191 1171.79 637.699 1184.76ZM620.759 1192.2C618.671 1188.61 616.86 1188.52 614.119 1190.12L599.153 1198.78C596.412 1200.37 595.582 1201.99 597.657 1205.58L606.209 1220.35C608.296 1223.95 609.981 1224.12 612.861 1222.44L627.814 1213.77C630.656 1212.12 631.398 1210.56 629.311 1206.97L620.759 1192.2Z" fill="black"/>
<path d="M682.662 1222.84L677.405 1213.75C677.145 1213.38 676.97 1212.96 676.893 1212.52C676.816 1212.08 676.839 1211.63 676.959 1211.2C677.08 1210.77 677.296 1210.37 677.591 1210.04C677.885 1209.7 678.252 1209.43 678.663 1209.26L701.199 1196.2C703.941 1194.61 704.783 1193 702.696 1189.39L697.15 1179.83C696.81 1184.71 693.993 1189 687.743 1192.62L680.926 1196.57C666.25 1205.07 656.667 1199.88 649.159 1186.9L634.81 1162.18C634.548 1161.82 634.37 1161.41 634.289 1160.97C634.207 1160.54 634.224 1160.09 634.339 1159.66C634.453 1159.23 634.662 1158.83 634.95 1158.49C635.239 1158.15 635.599 1157.88 636.005 1157.7L646.229 1151.77C646.592 1151.51 647.009 1151.34 647.449 1151.26C647.888 1151.18 648.34 1151.21 648.769 1151.33C649.199 1151.45 649.596 1151.66 649.932 1151.96C650.267 1152.25 650.531 1152.62 650.706 1153.03L666.062 1179.54C668.149 1183.14 669.973 1183.22 672.714 1181.64L687.667 1172.97C690.409 1171.39 691.239 1169.77 689.164 1166.17L673.796 1139.6C673.536 1139.24 673.361 1138.82 673.284 1138.38C673.207 1137.94 673.23 1137.49 673.35 1137.06C673.471 1136.63 673.687 1136.23 673.982 1135.9C674.276 1135.56 674.643 1135.3 675.053 1135.12L685.278 1129.2C685.638 1128.94 686.052 1128.76 686.489 1128.68C686.927 1128.59 687.377 1128.61 687.807 1128.73C688.237 1128.84 688.636 1129.05 688.975 1129.34C689.314 1129.63 689.585 1129.99 689.767 1130.39L717.498 1178.37C725.043 1191.34 724.364 1202.47 709.688 1210.95L687.164 1224.01C686.805 1224.27 686.391 1224.45 685.954 1224.53C685.517 1224.62 685.067 1224.6 684.636 1224.49C684.205 1224.38 683.805 1224.17 683.463 1223.89C683.122 1223.6 682.848 1223.24 682.662 1222.84Z" fill="black"/>
<path d="M749.815 1159.05L711.521 1092.85C711.259 1092.49 711.081 1092.08 711 1091.64C710.918 1091.2 710.935 1090.75 711.05 1090.32C711.164 1089.89 711.373 1089.49 711.661 1089.16C711.95 1088.82 712.31 1088.55 712.716 1088.36L722.94 1082.44C723.304 1082.18 723.722 1082.01 724.162 1081.93C724.603 1081.85 725.055 1081.87 725.486 1081.99C725.916 1082.11 726.315 1082.33 726.651 1082.63C726.987 1082.92 727.254 1083.29 727.43 1083.7L765.762 1149.87C766.021 1150.24 766.196 1150.65 766.273 1151.09C766.35 1151.53 766.328 1151.98 766.207 1152.41C766.086 1152.84 765.871 1153.24 765.576 1153.58C765.281 1153.91 764.915 1154.18 764.504 1154.35L754.28 1160.27C753.92 1160.53 753.507 1160.71 753.07 1160.79C752.633 1160.87 752.183 1160.85 751.755 1160.73C751.326 1160.62 750.93 1160.4 750.594 1160.11C750.258 1159.82 749.992 1159.46 749.815 1159.05Z" fill="black"/>
<path d="M763.854 1126.66L757.213 1115.2C749.919 1102.62 750.121 1091.62 764.759 1083.12L780.479 1074.01C795.155 1065.51 804.789 1070.81 812.083 1083.4L818.723 1094.85C826.269 1107.82 825.967 1118.75 811.303 1127.22L795.583 1136.33C780.944 1144.83 771.361 1139.64 763.854 1126.66ZM802.412 1112.67C805.153 1111.09 805.983 1109.47 803.908 1105.87L795.344 1091.1C793.256 1087.51 791.571 1087.33 788.704 1089.02L773.751 1097.68C770.909 1099.33 770.167 1100.9 772.254 1104.49L780.806 1119.25C782.894 1122.85 784.717 1122.93 787.459 1121.34L802.412 1112.67Z" fill="black"/>
<path d="M852.703 1100.4L804.914 1064.36C802.915 1062.86 803.091 1060.98 805.166 1059.78L816.484 1053.2C817.168 1052.73 817.998 1052.51 818.827 1052.58C819.657 1052.65 820.434 1053.02 821.024 1053.6L854.979 1080.98L848.025 1037.97C847.803 1037.17 847.872 1036.31 848.219 1035.56C848.567 1034.8 849.171 1034.19 849.924 1033.83L861.469 1027.14C863.556 1025.89 865.242 1026.72 865.569 1029.19L872.85 1088.7C872.981 1089.51 872.854 1090.35 872.486 1091.08C872.118 1091.82 871.529 1092.42 870.8 1092.8L857.256 1100.65C856.569 1101.1 855.757 1101.31 854.938 1101.27C854.12 1101.22 853.337 1100.92 852.703 1100.4Z" fill="black"/>
<path d="M885.174 1056.38L878.534 1044.93C871.24 1032.35 871.441 1021.35 886.079 1012.84L899.423 1005.11C914.099 996.608 923.745 1001.9 931.026 1014.49L935.906 1022.92C936.166 1023.28 936.34 1023.7 936.417 1024.14C936.495 1024.58 936.472 1025.03 936.351 1025.46C936.231 1025.89 936.015 1026.29 935.72 1026.63C935.426 1026.96 935.059 1027.23 934.648 1027.41L900.844 1046.98L902.001 1048.96C904.088 1052.56 905.899 1052.65 908.641 1051.05L934.107 1036.3C934.47 1036.04 934.887 1035.86 935.327 1035.79C935.767 1035.71 936.218 1035.73 936.648 1035.85C937.077 1035.97 937.475 1036.19 937.81 1036.48C938.145 1036.78 938.41 1037.15 938.584 1037.56L943.841 1046.65C944.101 1047.01 944.276 1047.43 944.353 1047.87C944.43 1048.31 944.407 1048.76 944.287 1049.19C944.166 1049.62 943.951 1050.02 943.656 1050.36C943.361 1050.7 942.995 1050.96 942.584 1051.14L916.74 1066.1C902.277 1074.59 892.694 1069.4 885.174 1056.38ZM915.356 1024.09L914.262 1022.19C912.175 1018.59 910.49 1018.42 907.61 1020.1L895.034 1027.39C892.191 1029.04 891.449 1030.61 893.537 1034.2L894.631 1036.1L915.356 1024.09Z" fill="black"/>
<path d="M0.558981 989.352L35.772 928.056C35.9485 927.647 36.2142 927.282 36.5496 926.989C36.885 926.695 37.2817 926.481 37.7108 926.36C38.1398 926.24 38.5903 926.216 39.0294 926.292C39.4686 926.368 39.8853 926.541 40.2491 926.798L74.7829 946.631C93.5716 957.421 95.7472 970.525 86.4284 986.761L84.8438 989.515C75.5249 1005.74 63.3136 1010.08 44.5375 999.299L24.0385 987.528L17.4486 999.01C17.2739 999.421 17.0092 999.787 16.674 1000.08C16.3388 1000.38 15.9416 1000.59 15.5118 1000.71C15.0821 1000.83 14.6307 1000.86 14.191 1000.78C13.7513 1000.7 13.3346 1000.53 12.9716 1000.27L1.77886 993.841C1.37246 993.66 1.01146 993.39 0.722016 993.052C0.432571 992.714 0.221874 992.315 0.105148 991.886C-0.0115778 991.456 -0.0313992 991.006 0.0470806 990.568C0.12556 990.13 0.300415 989.714 0.558981 989.352ZM52.1209 982.523C58.761 986.296 63.4393 987.729 68.017 979.668L69.4381 977.153C74.0661 969.092 70.8718 965.835 63.9424 961.886L44.9902 951.032L33.1687 971.62L52.1209 982.523Z" fill="black"/>
<path d="M81.6112 1011.69L88.201 1000.2C95.4449 987.629 105.066 982.259 119.767 990.71L135.537 999.79C150.239 1008.24 150.49 1019.23 143.247 1031.85L136.657 1043.33C129.186 1056.33 119.629 1061.56 104.915 1053.11L89.1694 1044.07C74.4429 1035.58 74.141 1024.69 81.6112 1011.69ZM113.051 1038.1C115.806 1039.68 117.616 1039.58 119.692 1035.98L128.193 1021.18C130.268 1017.57 129.526 1016.01 126.671 1014.38L111.643 1005.73C108.801 1004.09 107.065 1004.24 105.003 1007.84L96.5516 1022.64C94.4765 1026.25 95.294 1027.86 98.0733 1029.44L113.051 1038.1Z" fill="black"/>
<path d="M145.27 1073.25L155.934 1015.79C156.412 1013.41 157.972 1012.67 160.059 1013.86L171.629 1020.52C172.379 1020.88 172.972 1021.5 173.299 1022.26C173.625 1023.03 173.662 1023.89 173.403 1024.68L163.744 1064.56L193.222 1036.07C193.772 1035.45 194.531 1035.04 195.358 1034.93C196.185 1034.83 197.022 1035.03 197.712 1035.49L209.949 1042.52C210.698 1042.88 211.292 1043.51 211.618 1044.27C211.944 1045.04 211.981 1045.9 211.722 1046.69L201.887 1086.45L231.366 1057.97C231.918 1057.34 232.677 1056.94 233.502 1056.84C234.327 1056.73 235.163 1056.93 235.855 1057.39L247.627 1064.14C249.714 1065.34 249.953 1067.12 248.142 1068.73L203.698 1106.8C203.088 1107.39 202.293 1107.74 201.45 1107.81C200.606 1107.88 199.765 1107.65 199.07 1107.16L185.689 1099.48C184.94 1099.12 184.348 1098.49 184.023 1097.72C183.697 1096.96 183.659 1096.1 183.916 1095.31L193.21 1057.38L165.027 1084.46C164.474 1085.09 163.716 1085.49 162.89 1085.59C162.065 1085.7 161.229 1085.51 160.537 1085.04L147.156 1077.36C146.409 1077 145.81 1076.4 145.465 1075.65C145.12 1074.89 145.051 1074.04 145.27 1073.25Z" fill="black"/>
<path d="M234.085 1099.29L240.675 1087.81C247.919 1075.23 257.54 1069.86 272.241 1078.31L285.622 1086C300.323 1094.45 300.575 1105.44 293.331 1118.06L288.489 1126.49C288.315 1126.9 288.05 1127.27 287.715 1127.57C287.379 1127.86 286.982 1128.08 286.552 1128.2C286.123 1128.32 285.671 1128.34 285.232 1128.26C284.792 1128.19 284.375 1128.01 284.012 1127.75L250.145 1108.3L249 1110.28C246.925 1113.89 247.743 1115.5 250.51 1117.09L276.039 1131.74C276.45 1131.91 276.816 1132.18 277.111 1132.51C277.406 1132.85 277.621 1133.25 277.742 1133.67C277.863 1134.1 277.885 1134.56 277.808 1135C277.731 1135.44 277.556 1135.85 277.297 1136.22L272.065 1145.32C271.89 1145.73 271.625 1146.1 271.29 1146.39C270.955 1146.69 270.558 1146.9 270.128 1147.02C269.698 1147.14 269.247 1147.17 268.807 1147.09C268.368 1147.01 267.951 1146.84 267.588 1146.58L241.681 1131.71C226.917 1123.19 226.615 1112.3 234.085 1099.29ZM277.171 1109.28L278.265 1107.38C280.34 1103.77 279.598 1102.21 276.743 1100.57L264.167 1093.33C261.325 1091.7 259.589 1091.85 257.527 1095.44L256.433 1097.34L277.171 1109.28Z" fill="black"/>
<path d="M347.369 1121.46C347.779 1121.64 348.146 1121.9 348.441 1122.24C348.735 1122.57 348.951 1122.97 349.072 1123.4C349.192 1123.83 349.215 1124.28 349.138 1124.72C349.061 1125.16 348.886 1125.58 348.626 1125.94L343.395 1135.05C343.22 1135.46 342.955 1135.82 342.62 1136.12C342.285 1136.41 341.888 1136.63 341.458 1136.75C341.028 1136.87 340.577 1136.89 340.137 1136.81C339.697 1136.74 339.281 1136.56 338.918 1136.3L324.543 1128.07C321.789 1126.48 319.978 1126.58 317.903 1130.18L299.982 1161.39C299.807 1161.8 299.543 1162.17 299.207 1162.46C298.872 1162.76 298.475 1162.97 298.045 1163.1C297.616 1163.22 297.164 1163.24 296.724 1163.16C296.285 1163.08 295.868 1162.91 295.505 1162.65L285.255 1156.76C284.845 1156.59 284.478 1156.32 284.184 1155.99C283.889 1155.65 283.673 1155.26 283.552 1154.83C283.432 1154.4 283.409 1153.95 283.486 1153.51C283.563 1153.07 283.738 1152.65 283.998 1152.29L311.351 1104.65C311.526 1104.24 311.79 1103.87 312.125 1103.58C312.461 1103.28 312.858 1103.07 313.288 1102.95C313.717 1102.83 314.169 1102.8 314.608 1102.88C315.048 1102.96 315.465 1103.13 315.828 1103.39L326.077 1109.28C326.481 1109.45 326.842 1109.71 327.132 1110.03C327.423 1110.36 327.636 1110.75 327.757 1111.17C327.878 1111.59 327.902 1112.03 327.829 1112.47C327.756 1112.9 327.587 1113.31 327.335 1113.67L325.7 1116.51C330.14 1114.27 335.271 1114.56 341.533 1118.16L347.369 1121.46Z" fill="black"/>
<path d="M334.406 1156.99L340.995 1145.51C348.239 1132.93 357.86 1127.56 372.561 1136.01L385.942 1143.7C400.644 1152.15 400.895 1163.14 393.651 1175.75L388.797 1184.19C388.622 1184.6 388.358 1184.97 388.022 1185.26C387.687 1185.56 387.29 1185.78 386.86 1185.9C386.43 1186.02 385.979 1186.04 385.539 1185.96C385.1 1185.89 384.683 1185.71 384.32 1185.45L350.453 1166L349.308 1167.98C347.233 1171.59 348.051 1173.2 350.83 1174.79L376.347 1189.44C376.757 1189.61 377.124 1189.88 377.419 1190.21C377.713 1190.55 377.929 1190.94 378.05 1191.37C378.171 1191.8 378.193 1192.26 378.116 1192.69C378.039 1193.13 377.864 1193.55 377.604 1193.91L372.373 1203.02C372.198 1203.43 371.933 1203.8 371.598 1204.09C371.263 1204.39 370.866 1204.6 370.436 1204.72C370.006 1204.84 369.555 1204.87 369.115 1204.79C368.675 1204.71 368.259 1204.54 367.896 1204.28L342.001 1189.41C327.237 1180.89 326.935 1169.93 334.406 1156.99ZM377.491 1166.98L378.585 1165.08C380.66 1161.47 379.918 1159.91 377.064 1158.27L364.487 1151.03C361.645 1149.39 359.91 1149.55 357.847 1153.14L356.753 1155.04L377.491 1166.98Z" fill="black"/>
<path d="M464.946 1164.16L475.195 1170.04C475.606 1170.22 475.973 1170.48 476.267 1170.82C476.562 1171.15 476.778 1171.55 476.899 1171.98C477.019 1172.41 477.042 1172.86 476.965 1173.3C476.888 1173.74 476.713 1174.16 476.453 1174.52L438.335 1240.84C438.16 1241.25 437.896 1241.61 437.56 1241.91C437.225 1242.2 436.828 1242.42 436.398 1242.54C435.968 1242.66 435.517 1242.68 435.077 1242.6C434.638 1242.53 434.221 1242.35 433.858 1242.09L423.533 1236.22C423.134 1236.04 422.779 1235.78 422.492 1235.46C422.205 1235.13 421.994 1234.74 421.874 1234.32C421.754 1233.9 421.728 1233.46 421.797 1233.03C421.867 1232.6 422.03 1232.19 422.275 1231.83L423.86 1229.08C419.471 1231.23 414.34 1230.93 408.077 1227.33L401.248 1223.41C386.547 1214.95 386.295 1203.96 393.552 1191.34L400.154 1179.85C407.624 1166.86 417.195 1161.63 431.896 1170.08L438.725 1174.01C445.013 1177.6 447.83 1181.89 448.182 1186.76L460.456 1165.38C460.636 1164.97 460.905 1164.61 461.243 1164.32C461.581 1164.03 461.98 1163.82 462.41 1163.7C462.84 1163.58 463.292 1163.56 463.73 1163.64C464.169 1163.72 464.584 1163.9 464.946 1164.16ZM431.783 1215.28L440.284 1200.48C442.359 1196.87 441.542 1195.26 438.775 1193.68L423.785 1185.06C421.03 1183.48 419.219 1183.56 417.144 1187.17L408.643 1201.98C406.568 1205.58 407.31 1207.14 410.165 1208.78L425.155 1217.39C427.985 1219.03 429.72 1218.89 431.783 1215.28Z" fill="black"/>
<path d="M481.383 1222.45C492.879 1229.09 505.919 1232.58 519.193 1232.58C532.467 1232.58 545.507 1229.09 557.003 1222.45" stroke="black" stroke-width="20.04" stroke-linecap="round" stroke-linejoin="round"/>
<path d="M731.184 1172.76C736.594 1172.76 740.98 1168.38 740.98 1162.96C740.98 1157.55 736.594 1153.17 731.184 1153.17C725.773 1153.17 721.387 1157.55 721.387 1162.96C721.387 1168.38 725.773 1172.76 731.184 1172.76Z" fill="black"/>
</svg>
